<svg xmlns="http://www.w3.org/2000/svg" width="180.433" height="166.24" viewBox="0 0 180.433 166.24"><g id="Group_1500" data-name="Group 1500" transform="translate(519.457 1350.987) rotate(-167)"><path id="Path_42" data-name="Path 42" d="M215.335,289.721c0,15.683-8.923,28.947-19.355,39.224s-23.893,18.035-39.812,18.035-31.2-5.963-41.633-16.241-17.8-25.335-17.8-41.018,7.751-30.366,18.183-40.644,25.335-18.054,41.253-18.054,29.248,9.326,39.679,19.6S215.335,274.037,215.335,289.721Z" transform="translate(541.855 845.674)" fill="none" stroke="#12491d" stroke-width="2.938"></path><path id="Path_43" data-name="Path 43" d="M170.338,236.622c13.462,6.472,21.721,20.7,26.889,35.185s7.11,30.894,1.534,46.518-16.048,28.165-28.523,34.163-27.983,7.019-41.445.547-23.349-20.138-28.517-34.619-12.141-35.6-3.455-51.826,25.724-7.066,38.2-13.064S156.876,230.15,170.338,236.622Z" transform="translate(558.23 841.497)" fill="none" stroke="#707070" stroke-width="2.938"></path><path id="Path_44" data-name="Path 44" d="M104.794,253.856c10.025-14.51,25.969-20.66,41.268-23.012s31.521-.293,44.841,10.627,28.455,27.711,30.615,44.376,19.715,42.058-5.978,62.34-37.4,9.814-52.7,12.166-32.74-.676-46.059-11.6S98.271,320.062,96.112,303.4,94.769,268.367,104.794,253.856Z" transform="translate(549.42 843.457)" fill="none" stroke="#01a0c6" stroke-width="3.5"></path><path id="Path_46" data-name="Path 46" d="M191.02,239.723c12.055,12.054,15.492,29.007,15.492,44.806s-4.232,31.957-16.287,44.011-28.212,19.045-44.011,19.045-32.955-5.991-45.01-18.046-27.809-29.21-27.809-45.01,5.112-42.4,17.363-45.116,39.657-14.982,55.456-14.982S178.965,227.668,191.02,239.723Z" transform="translate(552.917 849)" fill="none" stroke="#80c41c" stroke-width="3.437"></path></g></svg>