<svg xmlns="http://www.w3.org/2000/svg" width="105.657" height="77.409" viewBox="0 0 105.657 77.409"><g id="Group_1410" data-name="Group 1410" transform="translate(-1074 -3272.591)"><g id="Group_1409" data-name="Group 1409" transform="translate(1137.954 3273.091)"><path id="Path_11514" data-name="Path 11514" d="M126.522,252.409a2.783,2.783,0,0,0,2.371-4.174l-2.174-3.777L124.6,245.7v-9.939l8.545,4.969-2.124,1.242,2.173,3.777a7.76,7.76,0,0,1,0,7.752,7.607,7.607,0,0,1-6.669,3.876h-9.484v-4.969Z" transform="translate(-93.093 -219.463)" fill="#00a0e3" stroke="#1c1c1c" stroke-width="1"></path><path id="Path_11515" data-name="Path 11515" d="M351.074,260.547l4.89-8.547,4.3,2.485-4.89,8.547a2.681,2.681,0,0,0,0,2.783,2.732,2.732,0,0,0,2.371,1.391h4.3v-2.485l8.546,5.019-8.545,4.969v-2.485h-4.3a7.777,7.777,0,0,1-6.668-11.678Z" transform="translate(-349.999 -234.26)" fill="#a6ce41" stroke="#1c1c1c" stroke-width="1"></path><path id="Path_11516" data-name="Path 11516" d="M225.558,59.734l2.173-3.777a7.675,7.675,0,0,1,13.337,0l4.5,7.851-4.3,2.485-4.5-7.851A2.767,2.767,0,0,0,234.4,57.05a2.669,2.669,0,0,0-2.371,1.391l-2.173,3.777,2.124,1.242-8.545,4.969V58.491Z" transform="translate(-213.814 -52.081)" fill="#bababa" stroke="#1c1c1c" stroke-width="1"></path></g><g id="noun-garbage-3047881" transform="translate(999.022 3268.331)"><path id="Path_11519" data-name="Path 11519" d="M145.788,51.09H136.7l-1.176-11.177a8.261,8.261,0,0,0-3.248-5.724l-10.722-8.041a3.492,3.492,0,0,0-.925-5.079l4.453-6.233a3.849,3.849,0,0,0-3.132-6.085H112.6a3.274,3.274,0,0,0-3.209,2.66L104.312,13.1a2.984,2.984,0,0,0-.537,5.422l5.372,3.069a3.486,3.486,0,0,0-.279,4.555L98.147,34.189A8.263,8.263,0,0,0,94.9,39.913L93.722,51.09H84.63a5.887,5.887,0,0,0-5.881,5.881V75.788a5.887,5.887,0,0,0,5.881,5.881h61.158a5.887,5.887,0,0,0,5.881-5.881V56.971a5.887,5.887,0,0,0-5.881-5.881ZM110.5,24.039a1.178,1.178,0,0,1,1.176-1.176h7.057a1.176,1.176,0,1,1,0,2.352H111.68A1.178,1.178,0,0,1,110.5,24.039Zm7.057,3.528a1.176,1.176,0,1,1-1.176,1.176A1.178,1.178,0,0,1,117.561,27.568ZM112.6,11.1h9.346a1.5,1.5,0,0,1,1.218,2.365l-5.032,7.044h-4.357l-2.067-8.266a.992.992,0,0,1-.027-.225.92.92,0,0,1,.918-.918Zm-7.975,4.831a.631.631,0,0,1,.433-.6l4.615-1.538,1.572,6.287-6.3-3.6a.633.633,0,0,1-.318-.548ZM97.239,40.159A5.9,5.9,0,0,1,99.56,36.07l11.336-8.5h3.353a3.487,3.487,0,0,0-.216,1.176V42.857h2.352v-10.8a3.305,3.305,0,0,0,2.352,0V47.562h2.352V28.744l9.77,7.326a5.908,5.908,0,0,1,2.321,4.089l2,19.026c-.562,1.488-4.658,10.723-19.975,10.723-15.42,0-19.411-9.173-19.972-10.717ZM84.63,53.442h8.846l-.631,5.992.068.226c.111.369,2.121,6.7,10.023,10.247H84.63A5.821,5.821,0,0,0,81.1,71.114V56.97a3.533,3.533,0,0,1,3.528-3.528Zm64.686,22.346a3.533,3.533,0,0,1-3.528,3.528H84.63a3.528,3.528,0,0,1,0-7.057h59.982v1.176a1.178,1.178,0,0,1-1.176,1.176H83.454v2.352h59.982a3.533,3.533,0,0,0,3.528-3.528V72.128a5.852,5.852,0,0,0,2.352-1.047Zm0-9.409a3.533,3.533,0,0,1-3.528,3.528h-18.3c7.9-3.544,9.911-9.878,10.023-10.247l.068-.226-.632-5.992h8.846a3.533,3.533,0,0,1,3.528,3.528Z" transform="translate(-3.771)" fill="#00a0e3"></path></g></g></svg>