<svg xmlns="http://www.w3.org/2000/svg" width="75.746" height="69.195" viewBox="0 0 75.746 69.195"><g id="noun-health-1406200" transform="translate(-85.289 -69.499)"><path id="Path_11517" data-name="Path 11517" d="M157.285,135.551,133.8,112.884l-1.179,1.269L157.285,138l30.645-29.467a23.029,23.029,0,0,0,0-31.915,18.948,18.948,0,0,0-13.781-5.8h-.182a24.571,24.571,0,0,0-16.683,6.891C151.845,72.629,146.859,70,142.325,70h0a21.669,21.669,0,0,0-15.595,6.618,22.583,22.583,0,0,0-6.075,11.605l1.813.362h0A20.767,20.767,0,0,1,128,77.887a19.859,19.859,0,0,1,14.325-6.075c4.171,0,8.976,2.539,14.235,7.707a1.088,1.088,0,0,0,1.541,0,22.847,22.847,0,0,1,15.867-6.8h.182a17.227,17.227,0,0,1,12.421,5.259,20.851,20.851,0,0,1,5.893,14.688,21.307,21.307,0,0,1-1.632,8.069H169.253a.9.9,0,0,0-.634.272l-10.064,10.608L147.946,87.588a.907.907,0,0,0-1.632-.091l-8.069,13.147H119.839v1.813h18.949a.907.907,0,0,0,.816-.453l7.435-12.149,10.335,23.755a.907.907,0,0,0,.635.544h.181a.907.907,0,0,0,.635-.272l10.88-11.424h20.4a20.492,20.492,0,0,1-3.445,4.715Z" transform="translate(-33.819)" fill="#00a0e3" stroke="#00a0e3" stroke-width="1"></path><path id="Path_11518" data-name="Path 11518" d="M85.958,101.685h18.46l9.592-13.643,10.868,24.369.2.453,12.031-11.178h20.506" transform="translate(-0.669)" fill="none" stroke="#a6ce41" stroke-width="3"></path></g></svg>