<?xml version="1.0" standalone="no"?>
<!DOCTYPE svg PUBLIC "-//W3C//DTD SVG 20010904//EN"
 "http://www.w3.org/TR/2001/REC-SVG-20010904/DTD/svg10.dtd">
<svg version="1.0" xmlns="http://www.w3.org/2000/svg"
 width="512.000000pt" height="512.000000pt" viewBox="0 0 512.000000 512.000000"
 preserveAspectRatio="xMidYMid meet">

<g transform="translate(0.000000,512.000000) scale(0.100000,-0.100000)"
fill="#000000" stroke="none">
<path d="M2420 4715 c0 -24 3 -25 60 -25 55 0 75 10 50 25 -6 4 -8 11 -5 16 4
5 -18 9 -49 9 -53 0 -56 -1 -56 -25z"/>
<path d="M2228 4682 c-10 -2 -18 -12 -18 -23 0 -14 7 -19 25 -19 19 0 24 5 22
20 -4 24 -8 27 -29 22z"/>
<path d="M3240 4500 c0 -17 7 -20 40 -20 33 0 40 3 40 20 0 17 -7 20 -40 20
-33 0 -40 -3 -40 -20z"/>
<path d="M3347 4463 c-15 -15 27 -43 65 -43 34 0 38 -3 38 -25 0 -21 5 -25 30
-25 25 0 30 4 30 25 0 21 -5 25 -30 25 -23 0 -31 5 -36 25 -5 22 -12 25 -48
25 -24 0 -46 -3 -49 -7z"/>
<path d="M3340 4430 c0 -5 5 -10 11 -10 5 0 7 5 4 10 -3 6 -8 10 -11 10 -2 0
-4 -4 -4 -10z"/>
<path d="M2095 4410 c-3 -5 -15 -10 -27 -10 -13 0 -18 -5 -15 -14 8 -22 -20
-29 -100 -27 -68 3 -72 2 -75 -21 -3 -21 -8 -23 -75 -26 -70 -3 -73 -4 -73
-27 0 -32 -6 -34 -89 -36 -68 -1 -71 -3 -71 -25 0 -23 -2 -24 -85 -24 -84 0
-85 0 -85 -25 0 -25 -1 -25 -80 -25 l-80 0 0 -30 c0 -30 -1 -30 -55 -30 -52 0
-55 -1 -55 -25 0 -23 -3 -25 -50 -25 -43 0 -50 -3 -50 -19 0 -23 -18 -37 -42
-33 -12 2 -18 -3 -18 -15 0 -23 -19 -43 -41 -43 -12 0 -15 -6 -11 -25 4 -22 1
-25 -28 -25 -29 0 -32 -3 -28 -25 4 -18 0 -26 -13 -30 -11 -4 -23 -4 -28 0 -5
3 -11 -7 -13 -22 -2 -20 -9 -29 -24 -31 -17 -2 -23 -12 -28 -43 -4 -22 -4 -44
-1 -50 4 -5 -8 -9 -24 -9 -26 0 -31 -4 -31 -24 0 -14 -14 -40 -30 -58 -17 -18
-30 -43 -30 -56 0 -15 -7 -26 -20 -29 -15 -4 -21 -17 -26 -54 -6 -43 -9 -49
-30 -49 -22 0 -24 -4 -24 -44 0 -53 -8 -76 -25 -76 -18 0 -35 -53 -35 -106 0
-33 -4 -44 -15 -44 -30 0 -35 -52 -35 -351 0 -193 -4 -299 -10 -299 -5 0 -10
-7 -10 -15 0 -21 -18 -19 -23 3 -3 9 -5 -48 -5 -128 0 -87 3 -135 8 -120 4 14
8 19 9 13 1 -7 6 -13 12 -13 6 0 8 9 4 20 -4 11 -2 20 4 20 7 0 11 24 11 59 0
56 1 58 24 54 19 -4 25 -13 30 -50 3 -25 6 -61 6 -79 0 -30 3 -34 25 -34 25 0
25 -1 25 -84 l0 -83 31 3 c18 2 28 0 24 -6 -3 -6 -3 -30 1 -55 5 -34 11 -45
24 -45 15 0 20 -12 26 -62 4 -35 7 -69 5 -75 -2 -11 18 -18 41 -14 5 0 8 -15
8 -34 0 -19 5 -35 11 -35 7 0 9 -11 6 -26 -5 -29 9 -20 16 11 4 18 5 18 6 -2
0 -12 6 -25 11 -28 6 -3 10 -28 10 -55 0 -43 3 -48 25 -54 23 -6 25 -11 25
-61 0 -52 1 -55 24 -55 23 0 25 -4 28 -52 3 -46 6 -53 25 -56 19 -3 24 -12 29
-53 6 -43 10 -49 30 -49 21 0 23 -5 26 -52 3 -46 6 -53 26 -56 34 -5 31 -52
-3 -52 -20 0 -25 5 -25 25 0 20 -5 25 -25 25 -21 0 -25 5 -25 30 0 27 -3 30
-30 30 -27 0 -30 -3 -30 -30 0 -25 4 -30 25 -30 20 0 25 -5 25 -25 0 -21 5
-25 30 -25 27 0 30 -3 30 -30 0 -25 4 -30 24 -30 19 0 25 -6 28 -27 2 -23 7
-27 28 -24 14 1 28 8 32 14 4 6 10 8 14 4 4 -4 13 -2 21 5 11 8 12 7 7 -6 -3
-9 -15 -16 -25 -16 -14 0 -19 -7 -19 -30 0 -25 4 -30 25 -30 20 0 25 -5 25
-25 0 -21 5 -25 30 -25 25 0 30 -4 30 -25 0 -20 5 -25 25 -25 20 0 25 -5 25
-25 0 -25 14 -31 76 -28 16 1 23 -6 28 -27 5 -26 10 -29 47 -32 46 -3 64 -24
27 -30 -15 -3 -3 -8 32 -14 46 -8 55 -13 60 -34 5 -22 13 -26 55 -30 30 -3 51
-10 51 -17 1 -7 2 -17 3 -23 0 -5 24 -10 51 -10 46 0 50 -2 50 -24 0 -27 28
-36 111 -36 45 0 49 -2 49 -24 l0 -25 246 -1 c136 0 251 -3 255 -6 5 -3 7 -10
4 -15 -4 -5 1 -9 10 -9 9 0 13 -5 10 -10 -4 -6 18 -10 60 -10 44 0 64 4 60 11
-9 13 67 8 78 -6 8 -11 29 14 21 26 -8 13 44 18 205 20 90 0 170 3 177 6 8 3
14 13 14 23 0 14 13 18 83 23 45 4 103 7 130 7 43 0 47 2 47 25 0 24 3 25 60
25 57 0 60 1 60 24 0 21 6 25 49 31 41 5 50 11 53 28 3 19 10 22 54 25 47 3
52 5 52 27 0 24 -1 24 -104 24 -104 0 -104 0 -104 -25 0 -13 -4 -25 -10 -25
-5 -1 -14 -3 -20 -4 -5 -1 -25 -3 -44 -4 -28 -1 -35 -5 -38 -23 -2 -13 -10
-24 -18 -25 -60 -7 -90 -15 -86 -21 14 -23 -17 -31 -136 -34 -123 -3 -127 -4
-133 -26 -8 -32 -30 -37 -54 -13 -12 12 -34 21 -51 21 -17 0 -30 5 -30 10 0 6
-7 10 -15 10 -8 0 -14 -3 -14 -7 1 -5 1 -18 0 -31 l-1 -24 -405 3 -405 3 0 22
c0 18 -7 22 -46 28 -26 3 -64 6 -85 6 -34 0 -37 2 -34 25 2 24 0 25 -51 25
-50 0 -54 2 -54 24 0 21 -6 24 -55 31 -50 6 -55 9 -55 31 0 20 -5 24 -30 24
-25 0 -30 4 -30 25 0 20 -5 25 -25 25 -18 0 -28 7 -35 25 -7 19 -19 26 -50 31
-33 5 -40 10 -40 30 0 17 -6 23 -27 26 -25 3 -29 9 -37 52 -6 34 -14 50 -27
53 -10 3 -19 15 -21 27 -2 13 -11 22 -25 24 -15 2 -23 11 -25 30 -2 21 -9 28
-30 30 -19 2 -28 10 -30 25 -2 12 -13 26 -24 31 -17 7 -24 22 -28 58 -6 43 -9
48 -32 48 -22 0 -25 4 -22 28 2 22 -1 28 -19 30 -25 4 -31 20 -35 97 -3 43 -6
50 -24 53 -24 3 -34 27 -34 80 0 27 -3 32 -25 32 -24 0 -25 3 -25 55 0 52 -1
55 -25 55 -24 0 -25 3 -25 55 0 52 -1 55 -25 55 -22 0 -25 5 -31 60 -3 33 -10
57 -15 54 -5 -3 -9 5 -10 18 0 21 -1 21 -8 4 -7 -18 -8 -18 -14 -2 -4 10 -7
31 -7 47 0 24 -4 29 -25 29 -20 0 -25 5 -25 24 0 39 -17 73 -39 79 -18 4 -21
13 -21 61 0 31 -4 56 -10 56 -5 0 -10 5 -10 11 0 5 4 8 9 4 6 -3 9 4 8 15 -1
13 -7 19 -17 17 -8 -1 -14 -10 -12 -20 2 -9 -2 -17 -8 -17 -6 0 -10 46 -10
130 0 130 0 130 -23 130 -23 0 -24 3 -30 122 -9 153 -9 262 -1 322 6 40 10 46
28 44 20 -3 21 2 24 105 3 106 3 107 27 107 24 0 25 2 25 80 0 78 1 80 24 80
21 0 24 6 31 55 6 50 9 55 31 55 22 0 24 3 24 55 0 51 2 55 24 55 21 0 25 6
31 49 5 41 11 50 28 53 16 2 23 11 25 31 3 21 9 27 28 27 20 0 24 5 24 30 0
25 4 30 24 30 21 0 25 6 31 50 6 44 10 50 31 50 19 0 24 5 24 25 0 20 5 25 25
25 24 0 27 4 29 40 1 11 15 16 54 18 48 3 52 5 52 28 0 23 2 24 75 24 41 0 75
4 75 9 0 4 11 6 25 3 20 -3 25 0 25 16 0 25 18 32 81 32 46 0 49 1 39 19 -13
25 -6 29 63 32 51 2 60 0 74 -21 9 -13 11 -20 5 -16 -6 3 -13 2 -17 -4 -3 -5
-19 -10 -36 -10 -26 0 -29 -3 -29 -30 0 -27 -3 -30 -30 -30 -25 0 -30 -4 -30
-25 0 -21 5 -25 30 -25 25 0 30 4 30 25 0 26 2 26 80 30 19 1 25 6 25 24 0 20
6 23 48 27 58 4 70 11 64 35 -4 16 2 18 52 21 49 3 56 6 59 26 3 19 10 22 50
23 78 2 107 12 110 37 3 20 9 22 80 23 99 2 127 9 127 33 0 17 7 19 88 17 85
-2 87 -2 87 21 0 26 23 32 123 31 31 -1 57 3 57 8 0 5 12 9 26 9 14 0 32 7 40
15 14 13 -4 15 -163 15 -98 0 -196 3 -217 7 -32 5 -38 4 -31 -8 6 -11 5 -12
-6 -1 -16 14 -105 16 -114 2z m-425 -240 c0 -11 -4 -20 -9 -20 -5 0 -7 9 -4
20 3 11 7 20 9 20 2 0 4 -9 4 -20z m-1195 -1770 c-3 -5 -11 -10 -16 -10 -6 0
-7 5 -4 10 3 6 11 10 16 10 6 0 7 -4 4 -10z m605 -1345 c0 -20 -5 -25 -25 -25
-20 0 -25 5 -25 25 0 20 5 25 25 25 20 0 25 -5 25 -25z m1393 -642 c-13 -2
-35 -2 -50 0 -16 2 -5 4 22 4 28 0 40 -2 28 -4z"/>
<path d="M2720 4401 c0 -6 36 -9 83 -9 56 1 72 4 52 9 -45 10 -135 10 -135 0z"/>
<path d="M3517 4364 c-4 -4 -7 -17 -7 -29 0 -20 5 -22 48 -21 41 1 47 4 50 24
3 19 -1 22 -26 22 -17 0 -37 2 -44 5 -8 3 -17 2 -21 -1z"/>
<path d="M3610 4285 c0 -20 5 -25 24 -25 14 0 27 4 30 9 11 18 -6 41 -30 41
-19 0 -24 -5 -24 -25z"/>
<path d="M3664 4238 c3 -13 5 -26 5 -30 1 -5 12 -8 26 -8 20 0 25 -5 25 -26 0
-22 4 -25 28 -22 19 2 27 9 27 23 0 14 -8 21 -27 23 -24 3 -28 8 -28 33 0 26
-3 29 -30 29 -26 0 -29 -3 -26 -22z"/>
<path d="M3130 4175 c0 -23 4 -25 34 -23 23 1 32 6 29 15 -3 7 0 13 6 13 6 0
11 5 11 10 0 6 -18 10 -40 10 -36 0 -40 -2 -40 -25z"/>
<path d="M3222 4180 c0 -14 2 -19 5 -12 2 6 2 18 0 25 -3 6 -5 1 -5 -13z"/>
<path d="M2110 4125 l0 -25 105 0 105 0 0 25 c0 24 -3 25 -53 25 -29 0 -59 -6
-65 -12 -10 -10 -17 -10 -32 0 -34 21 -60 15 -60 -13z"/>
<path d="M3240 4125 c0 -21 5 -25 29 -25 49 0 62 9 48 31 -8 12 -23 19 -44 19
-29 0 -33 -3 -33 -25z"/>
<path d="M3780 4125 c0 -18 5 -25 19 -25 12 0 20 9 23 25 4 21 1 25 -18 25
-19 0 -24 -5 -24 -25z"/>
<path d="M3340 4070 c0 -27 3 -30 30 -30 25 0 30 -4 30 -25 0 -22 4 -25 34
-25 47 0 66 -9 66 -31 0 -15 7 -19 31 -19 26 0 30 3 27 23 -2 16 -11 23 -30
25 -22 3 -28 9 -28 28 0 22 -4 24 -50 24 -49 0 -50 1 -50 30 0 27 -3 30 -30
30 -27 0 -30 -3 -30 -30z"/>
<path d="M3836 4092 c-3 -3 -6 -16 -6 -29 0 -19 5 -24 23 -21 18 2 23 -2 25
-24 3 -22 9 -28 28 -28 20 0 24 5 24 29 0 25 -3 28 -26 23 -18 -3 -25 -1 -24
9 4 27 0 37 -19 42 -11 3 -22 2 -25 -1z"/>
<path d="M1940 4070 c0 -17 7 -20 50 -20 43 0 50 3 50 20 0 17 -7 20 -50 20
-43 0 -50 -3 -50 -20z"/>
<path d="M1780 4015 c0 -23 3 -25 50 -25 47 0 50 2 50 25 0 23 -3 25 -50 25
-47 0 -50 -2 -50 -25z"/>
<path d="M1648 3980 c-13 -3 -24 -14 -26 -23 -3 -15 6 -17 72 -17 68 0 76 2
76 19 0 16 -9 20 -50 23 -27 1 -59 1 -72 -2z"/>
<path d="M3955 3971 c5 -16 4 -21 -4 -17 -6 4 -11 2 -11 -3 0 -6 11 -11 25
-11 21 0 25 -5 25 -30 0 -25 4 -30 25 -30 20 0 25 -5 25 -25 0 -21 5 -25 30
-25 27 0 30 -3 30 -30 0 -25 4 -30 25 -30 23 0 24 3 24 55 -1 30 -5 55 -10 55
-5 0 -9 -9 -9 -20 0 -11 -5 -20 -11 -20 -6 0 -8 9 -4 20 5 14 2 20 -9 20 -10
0 -16 9 -16 25 0 20 -5 25 -25 25 -18 0 -25 5 -25 20 0 13 -7 20 -18 20 -10 0
-24 6 -31 13 -11 10 -11 8 -1 -13 l13 -25 -28 25 -27 25 7 -24z"/>
<path d="M1352 3963 c2 -11 13 -19 28 -20 l25 -2 -25 8 c-24 9 -24 9 -2 10 31
1 28 21 -4 21 -19 0 -25 -5 -22 -17z"/>
<path d="M1460 3905 c0 -23 3 -25 49 -25 52 0 65 8 55 34 -4 12 -20 16 -55 16
-46 0 -49 -2 -49 -25z"/>
<path d="M3560 3905 c0 -20 5 -25 25 -25 20 0 25 -5 25 -26 0 -22 4 -25 28
-22 19 2 28 9 30 26 3 19 -1 22 -27 22 -26 0 -31 4 -31 25 0 20 -5 25 -25 25
-20 0 -25 -5 -25 -25z"/>
<path d="M1348 3855 c-5 -22 -2 -25 27 -25 29 0 32 3 27 25 -3 18 -11 25 -27
25 -16 0 -24 -7 -27 -25z"/>
<path d="M3693 3822 c-17 -3 -23 -10 -23 -28 0 -25 14 -30 38 -15 23 14 10 46
-15 43z"/>
<path d="M1240 3800 c0 -16 7 -20 30 -20 23 0 30 4 30 20 0 16 -7 20 -30 20
-23 0 -30 -4 -30 -20z"/>
<path d="M4163 3773 c-7 -2 -13 -16 -13 -29 0 -19 5 -24 24 -24 19 0 25 -6 28
-27 2 -18 10 -29 23 -32 27 -5 35 -19 35 -63 0 -34 3 -38 25 -38 21 0 25 -5
25 -30 0 -25 4 -30 24 -30 21 0 25 -6 31 -50 6 -44 10 -50 31 -50 20 0 24 -5
24 -30 0 -25 4 -30 25 -30 24 0 25 3 25 55 0 52 -1 55 -25 55 -21 0 -25 5 -25
30 0 19 -5 30 -12 29 -30 -4 -37 4 -43 51 -6 44 -10 50 -30 50 -18 0 -24 6
-27 28 -2 19 -9 28 -25 30 -17 3 -23 10 -23 28 0 20 -5 24 -30 24 -27 0 -30 3
-30 30 0 29 -9 35 -37 23z"/>
<path d="M1188 3748 c-2 -17 -11 -24 -30 -26 -22 -3 -28 -9 -28 -28 0 -19 5
-24 25 -24 20 0 25 5 25 25 0 21 5 25 30 25 25 0 30 4 30 25 0 34 -47 37 -52
3z"/>
<path d="M3720 3745 c0 -20 5 -25 25 -25 20 0 25 5 25 25 0 20 -5 25 -25 25
-20 0 -25 -5 -25 -25z"/>
<path d="M1080 3641 c0 -26 -4 -31 -24 -31 -19 0 -25 -6 -29 -32 -11 -68 -13
-73 -36 -70 -17 3 -21 -2 -21 -27 0 -26 -4 -31 -25 -31 -24 0 -25 -3 -25 -55
0 -52 1 -55 25 -55 24 0 25 3 25 55 0 52 1 55 25 55 21 0 25 5 25 30 0 25 4
30 24 30 21 0 25 6 31 50 6 45 10 50 32 50 21 0 24 4 21 28 -2 19 -9 28 -25
30 -20 3 -23 -1 -23 -27z"/>
<path d="M4044 3425 c-2 -20 3 -25 22 -25 19 0 24 5 24 25 0 19 -5 25 -22 25
-17 0 -23 -6 -24 -25z"/>
<path d="M4115 3370 c3 -5 8 -10 11 -10 2 0 4 5 4 10 0 6 -5 10 -11 10 -5 0
-7 -4 -4 -10z"/>
<path d="M4100 3322 c0 -35 2 -39 20 -35 25 7 29 -5 32 -87 3 -59 5 -65 26
-68 17 -3 22 -10 23 -33 1 -16 2 -39 3 -50 0 -12 10 -25 22 -29 23 -9 33 -49
34 -135 0 -28 7 -59 15 -69 10 -14 15 -15 15 -6 0 9 3 11 10 4 5 -5 11 -68 12
-139 l3 -130 27 -3 c20 -2 25 -7 21 -19 -5 -12 -2 -15 10 -10 9 3 17 2 17 -4
0 -6 5 -7 10 -4 6 3 10 36 9 73 0 47 -3 61 -9 47 -7 -17 -9 -17 -9 -2 -1 9 -5
17 -11 17 -6 0 -10 38 -10 94 0 133 -9 186 -30 186 -20 0 -30 36 -30 106 0 40
-2 44 -25 44 -24 0 -25 3 -25 55 0 55 0 55 -31 55 -16 0 -28 4 -25 9 3 5 3 30
0 55 -6 40 -10 46 -30 46 -20 0 -24 5 -24 30 0 17 -4 30 -9 30 -5 0 -16 3 -25
6 -13 5 -16 -2 -16 -34z m93 -179 c-7 -2 -19 -2 -25 0 -7 3 -2 5 12 5 14 0 19
-2 13 -5z"/>
<path d="M865 3286 c-7 -51 -10 -56 -32 -56 -23 0 -24 -1 -21 -77 3 -70 5 -76
26 -79 21 -4 22 -1 22 76 0 79 0 80 25 80 21 0 25 5 26 30 1 17 2 40 2 53 1
15 -5 23 -20 25 -19 3 -22 -3 -28 -52z"/>
<path d="M4487 3333 c-15 -4 -17 -13 -15 -51 3 -40 6 -47 25 -50 18 -3 23 -12
29 -58 6 -48 9 -54 30 -54 23 0 24 -2 24 -80 0 -77 1 -80 22 -76 18 2 25 12
31 46 13 63 2 107 -28 114 -22 6 -25 12 -25 56 0 28 -4 51 -10 51 -5 1 -16 2
-22 3 -7 0 -17 24 -22 54 -5 28 -12 51 -15 51 -3 -1 -14 -3 -24 -6z"/>
<path d="M3038 3233 c-11 -3 -18 -14 -18 -29 0 -20 -5 -24 -31 -24 -24 0 -30
-3 -25 -16 3 -9 6 -20 6 -25 0 -5 11 -9 25 -9 20 0 25 5 25 25 l0 25 210 0
c215 0 216 0 211 -37 -1 -8 10 -13 28 -13 25 0 30 -4 33 -27 2 -22 9 -29 31
-31 25 -3 27 -6 27 -53 0 -46 2 -49 25 -49 l25 0 0 -220 0 -220 -24 0 c-21 0
-24 -6 -30 -49 -5 -41 -10 -50 -29 -53 -15 -2 -23 -11 -25 -30 -3 -24 -8 -27
-50 -30 -40 -3 -47 -6 -50 -25 -3 -18 -10 -23 -33 -23 -16 0 -29 -3 -30 -7 0
-5 -2 -18 -5 -30 -3 -19 1 -23 20 -23 52 0 86 12 86 31 0 11 6 20 13 20 6 1
17 2 22 4 6 1 16 3 23 3 6 1 12 13 12 27 0 15 5 25 13 24 29 -4 37 2 37 27 0
23 3 26 25 22 23 -5 25 -2 25 28 0 31 3 34 30 34 30 0 30 1 30 55 0 52 1 55
25 55 24 0 25 3 25 55 0 52 -1 55 -25 55 l-25 0 0 159 0 160 -27 3 c-25 3 -28
7 -30 42 -3 54 -9 66 -33 66 -15 0 -20 7 -20 25 0 21 -5 25 -32 26 -18 1 -42
2 -52 3 -22 1 -35 26 -14 26 8 0 6 5 -5 11 -18 10 -383 21 -419 12z"/>
<path d="M1620 3156 c0 -19 -6 -25 -27 -28 -20 -2 -29 -9 -31 -25 -3 -17 -10
-23 -28 -23 -20 0 -24 -5 -24 -30 0 -25 -4 -30 -25 -30 -20 0 -25 -5 -25 -24
0 -14 -4 -28 -10 -31 -5 -3 -10 -14 -10 -24 0 -10 -9 -21 -20 -24 -19 -5 -20
-14 -20 -301 l0 -296 -25 0 c-24 0 -25 -3 -25 -55 0 -54 0 -55 -30 -55 -25 0
-30 -4 -30 -24 0 -21 -6 -25 -51 -31 -41 -6 -52 -12 -59 -31 -9 -23 -13 -24
-110 -24 -99 0 -100 0 -100 -24 0 -19 -6 -25 -27 -28 -28 -3 -28 -3 -24 -73 2
-38 5 -72 8 -75 2 -2 12 1 22 7 13 8 18 8 18 0 1 -7 2 -36 4 -65 1 -33 6 -51
13 -49 6 3 10 10 9 16 -2 6 2 11 8 11 6 0 9 -9 6 -20 -3 -13 0 -20 9 -20 10 0
14 -14 14 -55 0 -52 1 -55 25 -55 24 0 25 -3 25 -55 0 -52 1 -55 24 -55 23 0
25 -4 28 -52 3 -49 5 -53 31 -56 25 -3 27 -6 27 -53 0 -46 2 -49 25 -49 23 0
25 3 25 50 0 46 -2 50 -24 50 -24 0 -36 28 -36 86 0 19 -5 24 -25 24 -24 0
-25 3 -25 55 0 52 -1 55 -25 55 -20 0 -25 5 -26 28 -1 44 -9 115 -14 120 -2 3
-11 -1 -19 -7 -12 -11 -16 -6 -21 26 -9 54 -14 65 -24 58 -5 -3 -12 -1 -16 5
-3 6 3 10 15 10 22 0 24 24 2 26 -7 1 -16 2 -22 3 -5 0 -10 26 -10 56 l0 55
110 0 110 0 0 24 c0 23 4 25 53 28 45 3 52 6 55 25 2 14 11 23 25 25 16 2 23
11 25 31 3 21 9 27 28 27 20 0 24 5 24 28 0 47 11 72 31 72 18 0 19 12 19 254
0 139 3 274 6 300 6 40 10 46 30 46 20 0 24 5 24 30 0 25 4 30 24 30 21 0 25
6 31 50 6 44 10 50 31 50 19 0 24 5 24 24 0 22 5 25 55 31 31 4 103 4 160 0
100 -7 105 -8 105 -30 0 -19 7 -23 53 -30 32 -5 43 -10 30 -12 -13 -3 -23 -11
-23 -19 0 -10 13 -14 50 -14 46 0 50 -2 50 -24 0 -19 6 -25 28 -28 21 -2 28
-9 30 -30 3 -22 9 -28 28 -28 22 0 24 -3 24 -55 0 -54 0 -55 30 -55 l30 0 0
-111 c0 -109 0 -110 23 -107 21 3 22 7 21 93 -1 110 -10 165 -28 165 -9 0 -16
20 -20 59 -6 51 -10 60 -29 63 -16 2 -23 11 -25 31 -3 21 -9 27 -27 27 -17 0
-25 6 -27 23 -3 19 -10 22 -55 25 -48 3 -53 5 -53 26 0 21 -6 24 -55 31 -50 6
-55 9 -55 31 l0 24 -160 0 -160 0 0 -24z"/>
<path d="M2860 3101 c0 -14 -8 -21 -27 -23 -22 -2 -29 -9 -31 -30 -3 -22 -9
-28 -28 -28 -24 0 -24 0 -24 -105 l0 -105 -25 0 c-25 0 -25 -1 -25 -85 0 -82
1 -85 23 -85 l24 0 2 -257 c1 -141 4 -260 7 -265 12 -20 42 -7 46 20 2 15 2
195 1 400 l-3 372 24 0 c28 0 36 21 36 103 0 54 1 57 25 57 20 0 25 5 25 25 0
20 -5 25 -25 25 -18 0 -25 -5 -25 -19z"/>
<path d="M758 2978 c-3 -74 -2 -327 2 -635 0 -16 6 -23 20 -23 11 0 20 7 20
15 0 8 -6 15 -12 15 -9 0 -8 3 2 10 13 8 15 60 16 360 l1 350 -23 0 c-22 0
-23 -4 -26 -92z"/>
<path d="M4640 2887 c0 -19 10 -27 26 -20 21 8 17 33 -6 33 -11 0 -20 -6 -20
-13z"/>
<path d="M2320 2341 c0 -36 9 -61 22 -61 5 0 6 6 2 13 -5 7 0 6 11 -3 17 -14
18 -13 12 3 -4 10 -7 32 -7 48 0 22 -5 29 -20 29 -15 0 -20 -7 -20 -29z"/>
<path d="M810 2240 c0 -79 0 -80 25 -80 21 0 25 -5 26 -32 2 -71 4 -81 20 -83
33 -5 40 10 33 63 -6 47 -9 52 -32 52 -23 0 -24 3 -19 36 4 21 4 57 0 80 -5
38 -9 44 -29 44 -23 0 -24 -3 -24 -80z"/>
<path d="M3297 2304 c-4 -4 -7 -16 -7 -26 0 -16 -9 -18 -85 -18 -82 0 -85 -1
-81 -22 3 -21 9 -23 84 -26 72 -2 82 -1 82 14 0 10 6 25 14 33 13 16 7 59 -7
45z"/>
<path d="M2372 2233 c-17 -7 -5 -23 17 -23 10 0 18 7 18 15 0 15 -11 18 -35 8z"/>
<path d="M430 2020 c0 -79 0 -80 25 -80 25 0 25 1 25 80 0 79 0 80 -25 80 -25
0 -25 -1 -25 -80z"/>
<path d="M2590 2076 c0 -21 5 -26 25 -26 18 0 25 5 25 20 0 11 -4 20 -9 20 -5
0 -16 3 -25 6 -12 5 -16 0 -16 -20z"/>
<path d="M4261 1918 c0 -24 3 -37 6 -30 2 6 13 12 24 12 24 0 24 14 2 40 -26
30 -33 25 -32 -22z"/>
<path d="M2824 1886 c-18 -14 -19 -31 -22 -295 l-3 -280 -27 -4 -27 -4 27 -2
c27 -1 27 -2 30 -83 3 -82 3 -83 31 -86 26 -3 27 -6 27 -58 0 -51 1 -54 25
-54 20 0 25 -5 25 -25 0 -21 5 -25 31 -25 27 0 30 3 27 28 -2 21 -9 28 -30 30
-27 3 -28 6 -28 58 0 50 -2 54 -24 54 -22 0 -23 4 -30 98 -3 53 -6 222 -6 376
0 153 -1 280 -3 282 -2 2 -12 -3 -23 -10z"/>
<path d="M480 1838 c0 -29 5 -60 10 -68 8 -12 10 -12 10 -1 0 8 7 11 20 8 18
-5 20 0 20 54 0 59 0 59 -30 59 -30 0 -30 -1 -30 -52z"/>
<path d="M544 1716 c-3 -8 -4 -31 -2 -52 2 -32 7 -40 26 -42 21 -3 22 0 22 52
0 50 -2 56 -20 56 -11 0 -23 -6 -26 -14z"/>
<path d="M4533 1646 c5 -16 27 -19 27 -3 0 7 -7 14 -15 14 -9 0 -14 -5 -12
-11z"/>
<path d="M595 1610 c-3 -6 -3 -30 1 -55 5 -35 10 -45 25 -45 16 0 19 8 19 55
0 48 -3 55 -19 55 -11 0 -23 -5 -26 -10z"/>
<path d="M3940 1535 c0 -18 5 -25 20 -25 15 0 20 7 20 25 0 18 -5 25 -20 25
-15 0 -20 -7 -20 -25z"/>
<path d="M648 1488 c-2 -13 -1 -38 1 -55 3 -27 8 -33 27 -33 19 0 24 -5 24
-24 0 -25 15 -36 38 -29 6 3 12 16 12 29 0 19 -5 24 -25 24 -24 0 -25 3 -25
55 0 52 -2 55 -24 55 -18 0 -25 -6 -28 -22z"/>
<path d="M4046 1458 c2 -24 1 -35 -2 -25 -9 28 -44 22 -44 -8 0 -22 4 -25 40
-25 38 0 52 12 29 25 -7 5 -2 16 12 31 12 13 17 24 11 24 -7 0 -12 -6 -12 -12
0 -9 -3 -8 -10 2 -6 9 -5 17 3 22 8 5 4 8 -10 8 -19 0 -21 -4 -17 -42z"/>
<path d="M3830 1376 c0 -19 -6 -25 -27 -28 -22 -2 -29 -9 -31 -30 -3 -22 -9
-28 -28 -28 -19 0 -24 -5 -24 -25 0 -21 -5 -25 -30 -25 -25 0 -30 -4 -30 -24
0 -18 -6 -25 -22 -28 -16 -2 -24 -11 -26 -30 -2 -20 -8 -26 -25 -25 -62 3 -77
-2 -77 -28 0 -21 -5 -25 -30 -25 -27 0 -30 -3 -30 -30 0 -30 -1 -30 -55 -30
-52 0 -55 -1 -55 -26 0 -24 -2 -25 -52 -22 -49 3 -53 5 -50 26 3 21 0 23 -30
20 -25 -2 -33 -8 -33 -23 0 -18 -8 -20 -105 -25 -98 -5 -105 -6 -102 -25 5
-29 6 -29 86 -28 68 2 74 0 84 -22 14 -30 2 -35 -91 -35 -54 0 -68 -3 -57 -11
12 -9 11 -10 -7 -6 -18 4 -23 1 -23 -14 0 -21 14 -20 -255 -20 -77 0 -171 -4
-210 -7 -63 -6 -70 -9 -73 -29 -3 -20 -9 -23 -53 -23 -48 0 -49 1 -49 30 l0
31 -132 -2 c-243 -3 -248 -3 -248 26 0 22 -4 24 -57 27 -37 2 -58 7 -59 16 -1
6 -2 16 -3 20 0 4 -19 8 -41 9 -51 2 -60 8 -60 39 0 20 -5 24 -31 24 -26 0
-31 3 -26 20 6 24 -8 37 -17 15 -3 -8 -11 -15 -18 -14 -10 0 -10 2 0 6 22 9 2
23 -34 23 -31 0 -34 2 -34 30 0 25 -4 30 -25 30 -20 0 -25 5 -25 25 0 21 -5
25 -30 25 -25 0 -30 4 -30 25 0 20 -5 25 -25 25 -21 0 -25 5 -25 30 0 25 -4
30 -25 30 -20 0 -25 5 -25 25 0 21 -5 25 -30 25 -29 0 -30 2 -30 46 0 46 0 46
-23 32 -13 -9 -23 -28 -25 -46 -3 -25 1 -31 20 -34 18 -2 25 -12 32 -46 7 -32
14 -44 32 -48 18 -5 24 -13 24 -35 0 -24 4 -29 25 -29 20 0 25 -5 25 -25 0
-21 5 -25 30 -25 25 0 30 -4 30 -24 0 -21 6 -25 50 -31 45 -6 50 -9 50 -32 0
-25 2 -26 48 -20 26 2 39 3 30 0 -11 -3 -18 -14 -18 -28 0 -18 6 -24 27 -27
17 -2 29 -10 33 -23 5 -21 14 -25 68 -33 26 -3 32 -9 32 -28 0 -22 4 -23 78
-26 70 -3 77 -5 80 -24 3 -19 11 -22 65 -27 34 -3 96 -6 137 -7 49 -1 80 -6
89 -15 13 -12 11 -16 -10 -24 -16 -7 46 -10 201 -9 124 0 215 3 203 5 -27 5
-37 29 -15 38 9 4 106 10 214 13 191 5 197 5 200 26 2 13 10 21 23 22 11 0 68
4 128 8 84 6 107 11 107 23 0 21 27 47 33 30 3 -9 7 -9 18 0 8 7 25 10 37 6
19 -4 22 -1 22 21 0 22 4 26 30 26 25 0 30 4 30 24 0 22 5 25 58 32 55 8 55 8
22 15 -19 3 -26 7 -16 8 11 0 39 10 63 22 32 16 43 27 43 44 0 18 4 22 20 18
16 -4 20 0 20 20 0 27 25 48 48 40 7 -3 12 5 12 20 0 19 6 26 23 29 19 3 22
10 25 50 3 42 6 47 30 50 21 2 28 9 30 31 3 21 9 27 28 27 19 0 24 5 24 25 0
20 -5 25 -25 25 -20 0 -25 -5 -25 -24z m-2493 -168 c-3 -8 -6 -5 -6 6 -1 11 2
17 5 13 3 -3 4 -12 1 -19z m1903 -262 c0 -16 -7 -27 -20 -31 -27 -9 -40 1 -40
31 0 20 5 24 30 24 25 0 30 -4 30 -24z m-93 -8 c-3 -8 -6 -5 -6 6 -1 11 2 17
5 13 3 -3 4 -12 1 -19z m-671 -216 c-3 -5 -44 -9 -93 -10 -60 -1 -83 1 -73 8
18 12 173 13 166 2z"/>
<path d="M3942 1383 c5 -26 38 -29 38 -4 0 15 -6 21 -21 21 -14 0 -19 -5 -17
-17z"/>
<path d="M750 1321 c0 -10 3 -33 6 -50 5 -24 12 -31 30 -31 18 0 24 -5 24 -23
0 -30 6 -36 31 -30 12 3 19 14 19 29 0 19 -5 24 -25 24 -23 0 -25 3 -25 50 0
49 -1 50 -30 50 -23 0 -30 -5 -30 -19z"/>
<path d="M4280 1209 c0 -11 4 -18 10 -14 5 3 7 12 3 20 -7 21 -13 19 -13 -6z"/>
<path d="M4240 1160 c0 -5 5 -10 10 -10 6 0 10 5 10 10 0 6 -4 10 -10 10 -5 0
-10 -4 -10 -10z"/>
<path d="M4150 1105 c0 -30 11 -32 34 -6 15 17 15 19 1 25 -28 10 -35 7 -35
-19z"/>
<path d="M4060 1049 c-14 -15 -34 -29 -45 -31 -14 -2 -20 -11 -20 -28 0 -22
-4 -25 -28 -22 -25 3 -28 1 -25 -20 3 -20 9 -23 51 -26 44 -3 47 -2 47 21 0
18 7 27 26 31 18 5 24 12 20 22 -8 21 13 61 24 44 10 -16 30 -4 30 19 0 30
-51 23 -80 -10z"/>
<path d="M3290 1051 c0 -24 43 -23 48 2 3 13 -3 17 -22 17 -19 0 -26 -5 -26
-19z"/>
<path d="M3880 895 c0 -20 5 -25 25 -25 20 0 25 5 25 25 0 20 -5 25 -25 25
-20 0 -25 -5 -25 -25z"/>
<path d="M3778 833 c-3 -24 -7 -28 -30 -25 -24 3 -28 0 -28 -22 0 -25 -7 -28
-90 -39 -22 -3 -19 -41 3 -45 11 -2 34 -1 53 3 28 5 34 10 34 30 0 23 4 25 50
25 44 0 50 3 50 21 0 13 -4 18 -12 13 -7 -4 -8 -3 -4 4 4 7 16 12 27 12 22 0
49 22 49 39 0 6 -21 11 -49 11 -47 0 -50 -2 -53 -27z"/>
</g>
</svg>
