<svg xmlns="http://www.w3.org/2000/svg" width="477.691" height="240.187" viewBox="0 0 477.691 240.187"><g id="Paper_2" data-name="Paper 2" transform="matrix(1, 0, 0, 1, -1427.021, -4348.094)"><g id="Group_89" data-name="Group 89" transform="translate(159.423)"><path id="Path_236" data-name="Path 236" d="M1289.524,4376.9c.075.005.228.052.311.016a5.075,5.075,0,0,1,1.843.036l3.424.068q2.459.05,4.918.1l6.324.126,7.645.151,8.876.177,10.023.2,11.082.22,12.054.239,12.941.257,13.738.272,14.451.288,15.075.3,15.613.311,16.065.319q8.216.16,16.429.326l16.707.331,16.9.335,17,.338q8.51.169,17.019.337l16.947.336q8.4.17,16.792.335l16.547.328,16.217.323,15.8.312,15.3.3q7.351.145,14.7.291l14.027.28,13.262.264,12.411.247,11.471.227,10.446.208,9.335.184,8.135.163,6.849.136,5.477.109,4.017.08q1.235.023,2.47.049c.068,0,.8.092.837.019a6.551,6.551,0,0,0-.245,2.235c-.1.819-.094.4-.358,1-.494,1.121-.34,1.061.071,2.07.928,2.277-.808,3.9-2.207,4.672a2.52,2.52,0,0,0-1.458,1.341,2.784,2.784,0,0,0-.282,1.4c.057.423.342.453.389.876.171,1.527-1.182,1.222-1.778,1.917-.745.871.159,1.95-.09,3.122-.209.986-.254,2.046-.959,2.643-.865.736-1.962.781-2.707,1.876-1.025,1.5.128,3.776-1.462,5.135-.4.34-.529.193-.716.767-.151.464.058.936-.238,1.428-.338.563-1.02.777-1.477,1.293-2,2.265.815,3.447,1.585,5.209.365.833-.144,2.227.008,3.143a4.342,4.342,0,0,0,.944,1.944,4.251,4.251,0,0,1,1.1,1.727c.1.439-.081,1,.015,1.489a10.193,10.193,0,0,1,.6,2.661c0,1.291-.226,2.225,1,1.759.56-.215.443-.54,1.029-.155.356.236.494.807.66,1.194.147.346.5,1.008.609,1.378.164.555-.173,1.478.011,1.917.237.562.2.336.695.427.659.12.617,0,1.107.462.893.838.794,4.063.562,5.528-.184,1.165-.973,1.465-1.075,2.733-.089,1.123-.352,2.025-.375,3.207-.028,1.4.039,1.417.923,1.968a3.058,3.058,0,0,1,1.177,1.163c.357.751-.037,1.619.281,2.323.223.493.578.274.646,1.033.054.611-.216.868-.389,1.347a6.73,6.73,0,0,0-.367,1.852c-.077,1.15.107,1.051.592,1.827.634,1.013.585,3.774.3,5-.187.047-.373.1-.559.146a22.562,22.562,0,0,0-.441,3.127,21.18,21.18,0,0,0,.042,3.111,9.556,9.556,0,0,1,.262,1.015,10.174,10.174,0,0,1-.011,1.85,24.418,24.418,0,0,0-.732,2.5c-.036,1.022.714,1.349,1.069,2.2.549,1.312,1.344,2.941.69,4.432-.5,1.133-1.489,1.735-2.033,2.844-.928,1.9-.556,4.219-.574,6.352-.008.927.166,1.81-.349,2.414-.344.4-.567.113-.732.755-.1.4.057.883-.048,1.322a4.658,4.658,0,0,0-.558.156,2.361,2.361,0,0,1-.677,1.39,2.231,2.231,0,0,0-.445,1.714c0,.923-.009,1.852-.03,2.773q-.013.461-.031.918c.066.459.359.39.316.877-.072.828-1.5,1.883-1.957,2.188s-1.451.363-1.737.942-.005,1.779-.062,2.431c-.089,1.012-.612,1.678-.742,2.638-.2,1.479.229,3.313-.69,4.484-.808,1.031-2.417.179-2.795,1.841-.2.885.25,1.874-.15,2.67a.8.8,0,0,0-.629.625c-.291.542-.61,1.338-.888,1.9a4.129,4.129,0,0,0-.432,2.148,7.632,7.632,0,0,1-.455,2.624c-.412.612-.74-.241-.414.923.409,1.459.905,2.079.513,3.716a19.788,19.788,0,0,0-.785,4.413c-.032,1.466-.527,4.418.52,5.415.116.111.657.331.71.427a3.312,3.312,0,0,1-.035,1.754c-.241,1.138-.387,1.187.387,1.834a3.281,3.281,0,0,1,1.362,2.21c.057.486-.1,1.024-.04,1.509.023.181.264.955.268,1.018.072,1.355-.946,2.539-1.02,4.029-.067,1.355.815,1.159,1.044,2.263a13.269,13.269,0,0,1-.053,2c.022,1.338.206.75.611,1.687a4.093,4.093,0,0,1-.288,2.75,9,9,0,0,0-1.017,1.862c-.174.825-.015.842-.4,1.359-.486.656-.84.569-.715,1.824a19.334,19.334,0,0,1,.317,2.749c-.039,2.39.482,4.977-1.763,5.074s-4.5-.085-6.744-.13l-6.084-.12-7.567-.151-8.947-.177-10.226-.2-11.4-.227q-6.237-.122-12.475-.248l-13.447-.266q-7.158-.143-14.316-.285l-15.082-.3-15.748-.312-16.309-.324-16.77-.333-17.129-.339-17.384-.345-17.537-.349-17.589-.349-17.537-.349-17.385-.345-17.129-.34-16.772-.333-16.311-.324q-7.875-.154-15.751-.312l-15.084-.3-14.32-.285-13.45-.267-12.478-.248-11.407-.226-10.23-.2-8.952-.179-7.572-.151-6.091-.12-4.505-.09-1.627-.031c-.218-.005-.434-.01-.652-.014a4.112,4.112,0,0,1-.69-.007c-1.137-.222-1.214-1.312-1.76-2.4-.321-.637-.481-.618-1.038-.937a6.334,6.334,0,0,1-.937-.56c-.41-.772.1-2.673,0-3.592a5.094,5.094,0,0,0-1.094-2.664c-.919-1.217-.255-1.262.036-2.614a6.533,6.533,0,0,0-.227-3.448c-.2-.619-.359-1.259-.585-1.883a7.6,7.6,0,0,0-.124-.807,4.288,4.288,0,0,1-.627-.56,4.965,4.965,0,0,1-1.039-2.712q-.282-.081-.564-.167c-.208-1.006.1-2.11-.008-3.136a7.446,7.446,0,0,0-1.334-3.16c-.271-.305-.625-.269-.929-.661a8.623,8.623,0,0,1-.705-.932c-.538-1.265.664-1.733.94-2.633.294-.958-.242-2.351.062-3.245.281-.83.594-.045,1.084-.472.552-.482.153-.72.063-1.31a27.775,27.775,0,0,1-.039-3.694c-.023-1.5.454-1.2,1.312-1.789.039-.309.17-.464.393-.464a1.281,1.281,0,0,0,.722-.295,1.856,1.856,0,0,0,.612-1.031c.233-1.029-.157-.855-.537-1.5-.175-.3-.2-.915-.373-1.284-.4-.849-1.2-2-.547-3.12a9.561,9.561,0,0,1,1.518-1c.379-.245.966-.38,1.23-.857.719-1.292-1.053-1.754-.114-2.905.635-.779,1.35-.274,1.333-1.574-.005-.4-.373-.841-.271-1.5.076-.5.344-.862.4-1.367.107-1.041-.59-1.73-.642-2.7.581-.189,1.159.09,1.744,0a3.711,3.711,0,0,0,2.653-1.982c.178-.543.157-1.3.318-1.892.129-.477.344-.933.441-1.425.293-1.506-.442-1.494-1.047-2.488a2.212,2.212,0,0,1-.135-2.063c.186-.42.623-.588.59-1.171-.032-.565-.632-.7-.744-1.359a9.464,9.464,0,0,1,.041-1.387,8.686,8.686,0,0,1,.469-3.2,4.4,4.4,0,0,0,.011-2.754,14.116,14.116,0,0,1-.383-2.764,5.507,5.507,0,0,1,.266-1.807,9.145,9.145,0,0,0,.571-1.883c-.006-1.095-.825-1.252-1.216-2.274-.36-.939-.1-1.857-.456-2.8-.508-1.345-.464-1.366.2-2.726a6.808,6.808,0,0,0,.45-3.205,4.306,4.306,0,0,0-1.164-3.122,10.922,10.922,0,0,1-1.026-2.1,5.231,5.231,0,0,0,.8-.994,9.91,9.91,0,0,0,1.083-1.586,3.334,3.334,0,0,0,0-1.754c-.272-.576-.6-.331-.945-.65-1.308-1.2-1.267-4.424-.969-6.365.165-1.072,1.757-2.265,1.369-3.21-.378-.92-1.913-.332-2.591-1.052-.846-.9-.743-1.737-.724-3.1.013-.9.3-2.784-.028-3.606-.165-.42-.593-.461-.643-1.013-.053-.567.772-1.081.776-1.853s-.228-.728-.452-1.33a6.913,6.913,0,0,1-.218-2.712,2.44,2.44,0,0,0-.222-1.6c-.255-.378-.623-.283-.877-.663-.327-.491-.052-.925-.281-1.42a11.668,11.668,0,0,1-.62-1.042,5.569,5.569,0,0,1-.659-2.758c.239-1.65,1.467-2.28,1.886-3.769.317-1.133-.014-.861-.125-1.779a20.52,20.52,0,0,1,.045-2.318,3.719,3.719,0,0,1,.363-2.084c.177-.372.424-.332.407-.936.576-.088,1.931-.2,2.284-.918a6.91,6.91,0,0,0,.008-2.684.741.741,0,0,1-.3-.569.726.726,0,0,1,.307-.557,4.347,4.347,0,0,0,.113-1.272c-.143-.925-1.286-1.956-1.313-2.8a9.11,9.11,0,0,1,.887-2.37c.632-.934,1.986-1.186,2.224-2.593a10.1,10.1,0,0,1,.2-1.558c.25-.819.933-1.418,1.124-2.229.246-1.057.061-2,.409-3.066a1.3,1.3,0,0,1,.338-.925,2.735,2.735,0,0,0,.675-.661c.143-.562-.289-.658-.322-1.135-.1-1.364.606-2.428.934-3.573a4.049,4.049,0,0,0-.228-3.2c-.3-.451-.509-.347-.62-1.037-.071-.442.131-.963.059-1.411a7.061,7.061,0,0,1-.347-2.736,14.754,14.754,0,0,0,.389-2.747,5.292,5.292,0,0,0-.213-2.426c-.315-.635-.776-.489-.8-1.423C1289.227,4377.948,1289.508,4377.473,1289.524,4376.9Z" fill="#bababa" style="mix-blend-mode: multiply;isolation: isolate"></path><g id="Group_88" data-name="Group 88" transform="translate(1267.598 4373.345)"><path id="Path_237" data-name="Path 237" d="M1278.353,4373.438a.82.82,0,0,0,.319.009,5.242,5.242,0,0,1,1.884,0h456.176c.069,0,.821.078.854,0a6.615,6.615,0,0,0-.225,2.275c-.089.835-.092.415-.355,1.025-.492,1.149-.337,1.083.1,2.1.974,2.294-.783,3.982-2.2,4.789-.61.348-1.147.559-1.475,1.392a2.84,2.84,0,0,0-.272,1.432c.064.428.354.455.408.883.192,1.548-1.194,1.263-1.8,1.983-.751.9.185,1.977-.056,3.17-.2,1.006-.237,2.083-.95,2.705-.875.762-2,.833-2.744,1.959-1.031,1.548.172,3.832-1.436,5.244-.4.352-.539.2-.722.793-.149.474.07.949-.228,1.456-.338.578-1.033.809-1.494,1.342-2.022,2.341.872,3.484,1.678,5.258.382.84-.123,2.265.043,3.193a4.366,4.366,0,0,0,.985,1.956,4.276,4.276,0,0,1,1.147,1.73c.1.444-.073,1.015.032,1.513.243,1.158.627,1.4.645,2.688.017,1.312-.206,2.265,1.036,1.767.571-.229.448-.557,1.05-.177.365.233.514.809.688,1.2.154.345.522,1.014.637,1.386.174.559-.159,1.5.034,1.945.249.567.207.339.713.42.675.109.631-.01,1.137.446.922.834.857,4.111.635,5.6-.175,1.187-.978,1.508-1.067,2.8-.079,1.142-.338,2.065-.348,3.264-.012,1.426.057,1.437.966,1.98a3.086,3.086,0,0,1,1.215,1.158c.373.756-.019,1.645.313,2.354.233.5.592.266.671,1.036.064.618-.211.883-.382,1.375a6.818,6.818,0,0,0-.355,1.888c-.066,1.17.12,1.065.625,1.843.659,1.017.638,3.822.365,5.072-.189.052-.379.1-.568.16a22.739,22.739,0,0,0-.416,3.185,21.316,21.316,0,0,0,.078,3.16,8.971,8.971,0,0,1,.278,1.026,10.117,10.117,0,0,1,.009,1.878c-.114.883-.7,1.655-.72,2.558-.026,1.04.745,1.355,1.117,2.211.575,1.322,1.405,2.96.754,4.489-.495,1.159-1.5,1.792-2.044,2.929-.927,1.943-.521,4.295-.515,6.46,0,.942.19,1.836-.33,2.461-.346.415-.577.125-.739.779-.1.4.069.9-.034,1.343a5.652,5.652,0,0,0-.568.17,2.406,2.406,0,0,1-.676,1.426,2.272,2.272,0,0,0-.434,1.751c.009.938.01,1.879,0,2.816-.007.311-.013.621-.021.934.071.465.37.388.333.885-.066.841-1.51,1.942-1.976,2.261s-1.479.4-1.765.993.016,1.807-.035,2.469c-.08,1.031-.607,1.718-.73,2.693-.189,1.507.272,3.361-.653,4.569-.814,1.064-2.467.231-2.834,1.926-.2.9.277,1.9-.123,2.716a.818.818,0,0,0-.635.647c-.293.555-.61,1.371-.888,1.95a4.219,4.219,0,0,0-.417,2.192,7.721,7.721,0,0,1-.435,2.674c-.415.63-.759-.231-.412.944.434,1.475.948,2.094.566,3.764a20.031,20.031,0,0,0-.752,4.5c-.017,1.489-.49,4.5.591,5.489.12.109.676.323.73.418a3.332,3.332,0,0,1-.015,1.782c-.233,1.161-.382,1.215.416,1.855a3.293,3.293,0,0,1,1.417,2.218c.063.493-.094,1.042-.025,1.534.026.182.281.964.286,1.028.088,1.375-.939,2.6-1,4.111-.053,1.378.845,1.161,1.092,2.277a13.281,13.281,0,0,1-.031,2.037c.038,1.359.219.756.644,1.7a4.155,4.155,0,0,1-.263,2.8,9.239,9.239,0,0,0-1.019,1.912c-.168.84-.005.854-.391,1.387-.49.677-.852.6-.711,1.867a19.393,19.393,0,0,1,.355,2.785c-.011,2.43.549,5.044-1.744,5.188s-4.6.006-6.89.006H1280.626c-.221,0-.444,0-.665,0a4.145,4.145,0,0,1-.7.006c-1.164-.2-1.256-1.308-1.826-2.4-.334-.642-.5-.618-1.069-.932a6.342,6.342,0,0,1-.963-.55c-.427-.776.075-2.716-.043-3.648a5.1,5.1,0,0,0-1.149-2.683c-.952-1.216-.273-1.277.008-2.655a6.586,6.586,0,0,0-.271-3.5c-.208-.625-.379-1.271-.618-1.9a7.8,7.8,0,0,0-.136-.819,4.088,4.088,0,0,1-.646-.557,4.975,4.975,0,0,1-1.093-2.733c-.193-.05-.385-.1-.578-.156-.223-1.019.083-2.145-.043-3.185a7.467,7.467,0,0,0-1.4-3.182c-.28-.306-.642-.26-.957-.653a9.151,9.151,0,0,1-.732-.933c-.562-1.274.659-1.775.931-2.691.29-.979-.273-2.384.027-3.3.278-.849.607-.059,1.1-.5.558-.5.149-.734.05-1.331a27.983,27.983,0,0,1-.082-3.75c-.04-1.523.451-1.23,1.321-1.843.036-.314.168-.474.4-.479a1.326,1.326,0,0,0,.733-.316,1.889,1.889,0,0,0,.614-1.058c.227-1.05-.17-.866-.566-1.515-.183-.3-.212-.927-.4-1.3-.423-.855-1.248-2-.593-3.158a10.034,10.034,0,0,1,1.539-1.05c.385-.257.982-.406,1.247-.9.72-1.327-1.1-1.759-.149-2.948.641-.8,1.376-.306,1.344-1.625-.009-.4-.388-.849-.294-1.515.074-.51.343-.881.391-1.4.1-1.059-.623-1.744-.686-2.726.592-.2,1.186.067,1.783-.037a3.83,3.83,0,0,0,2.688-2.065c.175-.555.145-1.327.3-1.928.128-.487.343-.955.435-1.456.282-1.536-.469-1.508-1.1-2.506a2.23,2.23,0,0,1-.162-2.093c.185-.43.629-.611.59-1.2-.039-.573-.653-.692-.774-1.364a9.55,9.55,0,0,1,.026-1.409,8.823,8.823,0,0,1,.444-3.264,4.441,4.441,0,0,0-.02-2.8,14.311,14.311,0,0,1-.422-2.8,5.555,5.555,0,0,1,.251-1.839,9.315,9.315,0,0,0,.562-1.924c-.02-1.11-.856-1.254-1.266-2.285-.378-.944-.124-1.883-.5-2.832-.535-1.357-.491-1.38.175-2.773a6.9,6.9,0,0,0,.425-3.264,4.323,4.323,0,0,0-1.225-3.146,11.011,11.011,0,0,1-1.071-2.11,5.463,5.463,0,0,0,.809-1.025,10.229,10.229,0,0,0,1.088-1.633,3.369,3.369,0,0,0-.019-1.782c-.285-.578-.615-.324-.972-.641-1.351-1.194-1.344-4.466-1.061-6.447.156-1.091,1.769-2.335,1.362-3.286-.4-.927-1.958-.3-2.658-1.017-.875-.9-.778-1.749-.776-3.134,0-.913.271-2.834-.069-3.662-.173-.423-.611-.456-.669-1.017s.777-1.112.773-1.9-.241-.734-.478-1.341a6.955,6.955,0,0,1-.253-2.749,2.455,2.455,0,0,0-.245-1.62c-.264-.378-.64-.274-.9-.656-.339-.491-.063-.937-.3-1.435a11.532,11.532,0,0,1-.645-1.047,5.578,5.578,0,0,1-.7-2.787c.224-1.682,1.472-2.346,1.883-3.866.312-1.158-.023-.874-.148-1.8a20.811,20.811,0,0,1,.021-2.357,3.77,3.77,0,0,1,.348-2.122c.176-.38.428-.346.405-.96.588-.1,1.971-.243,2.324-.977a6.989,6.989,0,0,0-.025-2.728.685.685,0,0,1,0-1.142,4.322,4.322,0,0,0,.1-1.3c-.155-.935-1.335-1.959-1.372-2.82a9.3,9.3,0,0,1,.88-2.424c.634-.961,2.015-1.242,2.241-2.676a10.257,10.257,0,0,1,.193-1.588c.246-.836.937-1.459,1.121-2.287.241-1.076.042-2.031.385-3.122a1.323,1.323,0,0,1,.334-.946,2.8,2.8,0,0,0,.682-.686c.141-.574-.3-.661-.342-1.146-.111-1.384.592-2.479.916-3.647a4.089,4.089,0,0,0-.269-3.252c-.315-.451-.525-.342-.645-1.04-.078-.448.124-.979.044-1.433a7.1,7.1,0,0,1-.383-2.773,14.909,14.909,0,0,0,.366-2.8,5.339,5.339,0,0,0-.245-2.459c-.328-.639-.8-.481-.835-1.428C1278.063,4374.514,1278.345,4374.025,1278.353,4373.438Z" transform="translate(-1267.598 -4373.345)" fill="#bababa"></path><g id="Group_87" data-name="Group 87"><path id="Path_238" data-name="Path 238" d="M1287.494,4511.434a2.2,2.2,0,0,1,.291-.987c.066-.37.035-.663.068-1.031.066-.739.328-1.322.359-2.081a6.19,6.19,0,0,0,.019-1.454c-.085-.342-.291-.346-.387-.722a22.575,22.575,0,0,1,.026-2.4c-.062-.479-.283-.6-.376-1.024-.08-.359.03-.762-.05-1.143-.167-.793-.883-1.526-.647-2.39.085-.305.364-.336.409-.645.083-.545-.489-1.105-.74-1.512a5.256,5.256,0,0,1-.692-2.728c-.061-.488-.274-.6-.375-1.022-.082-.345.111-.741.035-1.086a7.589,7.589,0,0,0-.709-1.363c-.383-.8-1.247-1.315-1.429-2.193a9.215,9.215,0,0,1,.007-2.353,12.859,12.859,0,0,1,1.509-3.542c.366-.779.825-1.555,1.141-2.336.586-1.451,1.834-3.4.966-4.991a21.785,21.785,0,0,0-1.864-2.34c-.824-1.1.42-1.85,1.333-2.572.843-.667,1.814-.568,1.052-1.715-.642-.967-1.4-1.556-1.34-2.813.033-.625.468-1.208.253-1.818a10.608,10.608,0,0,0-1.224-1.714c-.506-.764-.369-.826-.139-1.7a8.235,8.235,0,0,0,.076-2.1,5.673,5.673,0,0,1-.026-1.041c.118-.516.517-.83.664-1.33.265-.9-.295-1.841-.286-2.79a9.489,9.489,0,0,0-.274-2.53c-.068-.274.03-.746-.128-.974-.175-.253-.77-.534-1.008-.769a4.183,4.183,0,0,1-.791-.98c-.106-.2-.149-.644-.229-.788-.381-.677-.969-.874-1.075-1.73-.1-.777.134-1.388-.246-2.124a12.175,12.175,0,0,1-1.084-2.1,5.585,5.585,0,0,0-.5-1.712,4.418,4.418,0,0,1-.959-2.466,6.243,6.243,0,0,0-.052-2.1,6.607,6.607,0,0,0-1.424-1.654c-.678-.641-.633-.892-.621-1.843a37.49,37.49,0,0,1,.34-4.205,4.465,4.465,0,0,1,.785-1.645c.5-.909.654-1.091,1.62-1.2a17.718,17.718,0,0,1,.747-2.747,4.721,4.721,0,0,0,.376-1.758c-.061-.4-.319-.7-.394-1.118a15.718,15.718,0,0,1,.012-2.8,2.215,2.215,0,0,1,.357-1.328c.175-.361.4-.541.414-.982q.286-.062.572-.119a9.239,9.239,0,0,0,.043-1.332c.1-.623.494-1.171.647-1.775.147-.582.121-1.137.314-1.73.089-.267.749-1.218.761-1.422.021-.337-.288-.6-.323-1.017a1.862,1.862,0,0,1,.269-1.076,2.816,2.816,0,0,0,.435-1.276c.082-.533.284-.994.38-1.52s.1-.93.245-1.468a6.14,6.14,0,0,1,.153-.9,1.586,1.586,0,0,0,.572-.389c.368-.9-.023-1.617.567-2.547.425-.672,2.263-2.051,1.536-3-.29-.375-.742-.33-1-.753-.158-.255-.3-.771-.437-1.065-.5-1.088-.01-1.789.522-2.782a5.2,5.2,0,0,0,.638-3.24,3.583,3.583,0,0,0-1.143-2.292c-.747-.565-.988-.328-.969-1.48a3.445,3.445,0,0,0-.061-1.3,1.6,1.6,0,0,1-.572-.69l-.151-.892c-.267-1.158-.045-2.288-.257-3.435a9.157,9.157,0,0,1-.359-2.065l0-.028a3.392,3.392,0,0,0-1.243.085,1.463,1.463,0,0,1-.427-.009c-.01.587-.388,1.076-.359,1.652.049.947.68.79,1.119,1.428a4.078,4.078,0,0,1,.328,2.459,11.377,11.377,0,0,1-.491,2.8c-.245,1.137.3,1.852.513,2.773.107.455-.163.985-.059,1.433.161.7.442.588.864,1.04a3.178,3.178,0,0,1,.361,3.252c-.434,1.168-1.375,2.263-1.226,3.647.054.484.647.571.458,1.146a3.44,3.44,0,0,1-.914.686,1.144,1.144,0,0,0-.447.946c-.459,1.091-.193,2.046-.515,3.122-.248.827-1.172,1.451-1.5,2.287a7.8,7.8,0,0,0-.258,1.588c-.3,1.434-2.152,1.715-3,2.676a7.9,7.9,0,0,0-1.179,2.424c.05.861,1.63,1.885,1.838,2.82a3.267,3.267,0,0,1-.135,1.3.6.6,0,0,0,0,1.142c.107.619.406,2.148.033,2.728-.473.733-2.325.876-3.112.977.031.614-.307.58-.543.96a2.952,2.952,0,0,0-.466,2.122,15.519,15.519,0,0,0-.028,2.357c.166.931.615.647.2,1.8-.55,1.52-2.221,2.185-2.521,3.866-.184,1.029.5,1.947.942,2.785.251.475.61.656.864,1.048.323.5-.049.944.406,1.435.352.382.855.278,1.209.656.463.493.34.969.328,1.62a5.288,5.288,0,0,0,.338,2.749c.317.607.633.564.64,1.341s-1.115,1.324-1.035,1.9.664.594.9,1.017c.454.828.1,2.749.092,3.662,0,1.385-.132,2.238,1.039,3.134.938.718,3.029.09,3.56,1.017.544.951-1.616,2.195-1.824,3.286-.38,1.98-.388,5.253,1.42,6.447.479.316.921.063,1.3.641a2.551,2.551,0,0,1,.026,1.782,10.691,10.691,0,0,1-1.457,1.633,6.073,6.073,0,0,1-1.084,1.025,10.272,10.272,0,0,0,1.434,2.109c1.084,1.15,1.618,1.515,1.641,3.147a5.314,5.314,0,0,1-.569,3.264c-.891,1.394-.95,1.416-.234,2.773.5.949.16,1.888.666,2.832.55,1.031,1.67,1.175,1.7,2.285a7.624,7.624,0,0,1-.753,1.924,4.265,4.265,0,0,0-.336,1.839,10.984,10.984,0,0,0,.565,2.8c.277,1.132.555,1.635.026,2.8a6.777,6.777,0,0,0-.595,3.264,7.133,7.133,0,0,0-.035,1.409c.163.672.985.792,1.037,1.364.052.592-.543.772-.791,1.2a1.754,1.754,0,0,0,.217,2.093c.841,1,1.847.97,1.469,2.506-.123.5-.411.968-.583,1.456-.21.6-.17,1.373-.4,1.928-.463,1.091-2.471,1.917-3.6,2.065a18.9,18.9,0,0,0-2.388.037c.085.982,1.051,1.667.919,2.726-.064.514-.425.887-.524,1.4-.128.666.381,1.111.394,1.515.043,1.319-.942.821-1.8,1.625-1.268,1.189,1.163,1.621.2,2.948-.355.489-1.155.639-1.67.9a14.326,14.326,0,0,0-2.062,1.05c-.877,1.154.227,2.3.794,3.158.245.37.284,1,.529,1.3.531.649,1.061.465.758,1.515a1.87,1.87,0,0,1-.822,1.058,2.119,2.119,0,0,1-.981.316.5.5,0,0,0-.532.479c-1.165.612-1.822.319-1.769,1.843a20.93,20.93,0,0,0,.109,3.75c.132.6.68.831-.068,1.331-.662.444-1.1-.345-1.476.5-.4.913.352,2.318-.036,3.3-.364.916-2,1.417-1.247,2.691a9.962,9.962,0,0,0,.98.932c.421.394.907.349,1.281.654a6.73,6.73,0,0,1,1.873,3.182c.168,1.04-.241,2.166.057,3.185.257.054.515.105.773.156a4.386,4.386,0,0,0,1.464,2.733,5.358,5.358,0,0,0,.865.557,6.015,6.015,0,0,1,.182.819c.319.628.548,1.273.827,1.9a5.02,5.02,0,0,1,.362,3.5c-.376,1.379-1.285,1.44-.01,2.657a4.583,4.583,0,0,1,1.538,2.683c.158.932-.515,2.872.057,3.648a9.562,9.562,0,0,0,1.29.55c.766.314.985.29,1.432.932.763,1.093.886,2.2,2.445,2.4a2.076,2.076,0,0,0,.22,0l-.023-.022c-.662-.812-.383-1.769-.43-2.728a2.185,2.185,0,0,0-.427-1.3c-.336-.495-.674-1.046-.978-1.521-.236-.37-.482-.622-.7-1.022a.572.572,0,0,0-.329-.623,1.107,1.107,0,0,1-.668-.39c-.44-.647-.069-2.708-.05-3.534a3.82,3.82,0,0,1,.342-1.652c.2-.5.782-1.3.74-1.873a.491.491,0,0,0-.307-.383,1.55,1.55,0,0,1-.085-.883c-.026-.54.193-1.3-.052-1.8-.191-.029-.382-.066-.571-.111a6.744,6.744,0,0,0-1.184-3.028c-.345-.338-1.007-.189-1.257-.836-.156-.4-.948-1.251-.422-1.32-1.236.456-1.058-.524-.794-1.128a4.429,4.429,0,0,0,.442-2.106,9.755,9.755,0,0,0,.017-2.4c-.208-.638-.952-1.178-1.344-1.73a9.163,9.163,0,0,1-.827-1.73,7.335,7.335,0,0,0-1.243-1.483,8.953,8.953,0,0,1-1.151-1.323c-.18-.283-.215-.526-.584-.682a11.184,11.184,0,0,0,3.941-2.659c.714-.748.407-.793.222-1.624-.146-.656.083-1.373-.052-2.02-.161-.788-1.049-1.118-.671-2.039,1.907.047.818-3.734,3.04-3.607.123-.458-.045-.894.035-1.349.066-.377.394-.667.4-1.048.016-.727-.83-1.182-1.092-1.74-.832-1.791.009-3.523,1.418-4.748a4.517,4.517,0,0,1,1.656-.857c.617-.231.553-.342,1.049-.717.605-.455,1.063-.173,1.826-.4a16.67,16.67,0,0,0,2.369-1.057c.491-.251,1.666-.8,1.85-1.3C1287.513,4511.97,1287.5,4511.7,1287.494,4511.434Z" transform="translate(-1267.598 -4373.345)" fill="#fff7e6"></path><path id="Path_239" data-name="Path 239" d="M1895.865,4373.447H1891.9a3.622,3.622,0,0,0,.376.425c.153.139.406.208.529.38.737,1.024-.168,2.333-.772,3.149a2.33,2.33,0,0,0-.251,2.451c-.286.2-.64.234-.869.519-.023.14-.052.281-.085.42-.1.092-.2.184-.3.279-.251.285-.642.5-.78.875a3.828,3.828,0,0,0-.042,1.229c0,.7.007,1.408,0,2.11s.38,1.369.18,2.034c-.165.555-.558.6-.943.917-.236.2-.257.51-.453.729-.125.022-.246.05-.369.085a4.3,4.3,0,0,0-.213.486c-.087.067-.172.138-.251.213a.654.654,0,0,0-.04.422,5.291,5.291,0,0,0-.232,1.177c-.068.445-.61,1.471-.106,1.858a2.615,2.615,0,0,0-.794.927c-.069.2.052.5-.078.659-.082.1-.373.083-.5.2-.286.279-.255.692-.385,1-.229.552-.669.516-1.228.694-.739.24-.874.542-1.346,1.12-.359.438-.694.422-1.164.677-.853.461-1.469,1.708-2.039,2.447a4.3,4.3,0,0,0-.519,1.827,3.247,3.247,0,0,1-.874,1.34,32.96,32.96,0,0,1-2.858,2.912,2.855,2.855,0,0,0-1.165,2.273,5.005,5.005,0,0,0,.04,1.643c.21.509.761.9,1.054,1.352-.489.144-1.1-.13-1.578.018a5.3,5.3,0,0,0-.968.647c-.491.293-.947.57-1.462.828a6.291,6.291,0,0,1-.64.36c-.295.1-.576-.019-.874.089a.99.99,0,0,0-.7,1.125c.009.614-.114.809.461,1.105a4.973,4.973,0,0,0,3.033.538c.255-.045.435-.2.689-.257a5.191,5.191,0,0,1,1.007.012,12.661,12.661,0,0,1,1.81,0,3.916,3.916,0,0,1,.5.186c.286.069.544-.009.834.04.739.125.981.228.983.945a3.8,3.8,0,0,0,.285,1.4c.182.472.5.421.817.743.7.709,1.4,1.44,2.161,2.108.447.391.858.536.936,1.1a10.547,10.547,0,0,1-.005,1.405,5.106,5.106,0,0,0,.17,1.826c.1.261.251.474.359.726a10.76,10.76,0,0,1,.212,1.184c.111.357.309.429.583.631.381.283.7.51,1.07.838.472.422,1.134.368,1.514.9a2.735,2.735,0,0,1,.281.956,2.382,2.382,0,0,0,.468.918,9.731,9.731,0,0,0,.747,1.057c.342.375.947.736,1.2,1.177.083.148.078.411.14.519.121.208.331.226.449.43.149.26-.191.915-.269,1.156-.068.212-.087.567-.156.751-.173.457-.853.734-1.084,1.154a1.728,1.728,0,0,0,.192,1.631c.29.467.548.647.647,1.162a4.779,4.779,0,0,0,.4,1.288,15.913,15.913,0,0,0,1.117,1.7,5.367,5.367,0,0,1,.536.739c.149.38-.031.8.036,1.189a.934.934,0,0,0,.437.741,1.309,1.309,0,0,0,.033,1.34c.269.557-.144,1.1-.453,1.621-.189.317-.522.538-.5.961.019.342.191.375.267.664a17.3,17.3,0,0,1-.022,2.18,1.549,1.549,0,0,0,.3.82c.106.143.6.361.617.568.026.305-.293.423-.4.7-.192.507.134.62.153.984.04.684-.461,1.294-.61,1.943-.161.7.408,1.1-.024,1.73-.493.717-.938,1.086-.682,2.013.309-.017.286.16.477.273a6.343,6.343,0,0,1,.6.284,6.644,6.644,0,0,1,.931,1.126c.8,1.066-.383,2.327-.425,3.5-.017.46.035.927.01,1.387a7.963,7.963,0,0,0-.245,1.638,2.893,2.893,0,0,0,.524,1.173c.156.229.333.243.484.493a2.291,2.291,0,0,1,.158,1.119,5.415,5.415,0,0,0,.465,1.632c.2.507.652,1.013.423,1.585s-1.065.859-1.522,1.207a5.988,5.988,0,0,0-1.7,1.876c-.1.224.057.317-.14.532s-.572.188-.8.4c-.472.434-.418.823-.442,1.406a4.711,4.711,0,0,1-.534,1.444,14.758,14.758,0,0,0-.2,2.011c-.794.245-2.239.5-2.728,1.258a2.554,2.554,0,0,0-.043,1.109,2.4,2.4,0,0,0,.524,1.461,3.316,3.316,0,0,1,.647,2.564,6.555,6.555,0,0,0,.052,1.522c.085.356.432.847-.245.792a2.708,2.708,0,0,0-.045.894c.021.351.231.605.255.938s-.2.531-.262.863.083.677.022,1c-.116.614-.565.868-1,1.159a6.4,6.4,0,0,1-.822.536,2.816,2.816,0,0,1-1.28.165c-1.115.016-1.108.708-1.333,1.624a5.672,5.672,0,0,0-.245,1.184,5.243,5.243,0,0,0,.251,1.161,11.239,11.239,0,0,1,.22,1.864,4.777,4.777,0,0,1,.01.945,4.724,4.724,0,0,0-.277.887c-.213.022-.414.043-.626.068-.01.694-1.013,1.593-1.495,2.018a15.243,15.243,0,0,1-1.864,1.392c-.515.319-1.1.642-1.625.92-.792.423-1.25.194-1.385,1.192-.491.021-.827.609-1.075.972a8.333,8.333,0,0,1-1.2,1.586c-.184.158-.472.158-.661.326a6.919,6.919,0,0,0-.5.7c-.576.7-.86.771-.484,1.56a6.939,6.939,0,0,1,.522,1.368,3.309,3.309,0,0,1,.187.507,7.455,7.455,0,0,1-.005,1.181,1.929,1.929,0,0,0,.047.828c.08.167.307.229.373.376.243.55-.411.777-.146,1.315.129.023.257.045.385.066.156.446-.061.925.029,1.371a4.79,4.79,0,0,0,.539,1.114,6.737,6.737,0,0,1,.17,2.662c0,2.047-.232,3.967-.232,6.017a3.463,3.463,0,0,1-.276,1.568c-.232.253-.576.495-.83.764-.433.457-.917.765-1,1.392a2.827,2.827,0,0,0,1.216,2.74,4.243,4.243,0,0,1,1.054,1.236c.3.477.7.582.768,1.154a11.132,11.132,0,0,1,0,1.4c-.01.778.316.654.657,1.218.184.307.04,1.043.04,1.4a6.615,6.615,0,0,1-.029,1.626c-.135.489-.57.709-.867,1.074s-.208.335-.272.744a2.819,2.819,0,0,0,.22,1.866c.3.415.772.71.9,1.218.128.529-.033,1.11.338,1.6.285.372.7.349.663.91a2.083,2.083,0,0,1-.314.706,2.006,2.006,0,0,0-.163.989c-.009.715-.4.854-.95,1.3a4.321,4.321,0,0,0-.867.8c-.1.134-.175.325-.267.455a4.693,4.693,0,0,1-.716.718c-.534.486-1.19,1.159-.9,1.987.108.307.4.411.454.747s-.114.43-.256.7c-.279.526-.407,1.154-.739,1.682a12.717,12.717,0,0,1-1.76,2.11c-.78.776-1.547,1.552-2.328,2.326-.378.376-.833.758-1.228,1.173h.317c3.064,0,6.166.138,9.227-.006s2.32-2.759,2.336-5.188a14.758,14.758,0,0,0-.475-2.785c-.189-1.27.3-1.19.952-1.867.517-.533.3-.546.524-1.387.2-.732.987-1.289,1.365-1.912a3.207,3.207,0,0,0,.352-2.8c-.569-.944-.812-.342-.862-1.7a9.914,9.914,0,0,0,.042-2.037c-.329-1.116-1.533-.9-1.462-2.277.078-1.515,1.453-2.737,1.335-4.111-.007-.064-.349-.846-.383-1.028-.094-.492.118-1.042.033-1.534a3.393,3.393,0,0,0-1.9-2.218c-1.068-.64-.869-.694-.557-1.855.12-.44.335-1.369.021-1.782-.073-.1-.817-.309-.978-.418-1.446-.991-.813-4-.791-5.489a15.478,15.478,0,0,1,1.008-4.5c.511-1.669-.177-2.289-.758-3.764-.465-1.175,0-.316.551-.944a5.975,5.975,0,0,0,.583-2.674,3.325,3.325,0,0,1,.558-2.192c.373-.58.8-1.4,1.19-1.95a1,1,0,0,1,.85-.647c.536-.817-.1-1.813.165-2.716.493-1.7,2.705-.862,3.8-1.926,1.238-1.208.621-3.062.874-4.569.165-.975.872-1.662.978-2.693.068-.663-.331-1.883.047-2.469s1.732-.67,2.363-.993,2.558-1.42,2.646-2.261c.05-.5-.35-.42-.446-.885.01-.313.019-.624.028-.934.014-.937.012-1.879,0-2.816a1.867,1.867,0,0,1,.581-1.751c.43-.479.853-.716.905-1.426.251-.067.5-.123.761-.17.137-.446-.089-.939.045-1.343.217-.654.527-.364.99-.781.7-.623.446-1.517.442-2.459-.007-2.166-.551-4.517.69-6.46.727-1.137,2.076-1.77,2.738-2.929.872-1.529-.239-3.167-1.009-4.489-.5-.856-1.531-1.171-1.5-2.211.031-.9.811-1.674.966-2.558a7.661,7.661,0,0,0-.014-1.878,7.234,7.234,0,0,0-.373-1.026,15.956,15.956,0,0,1-.1-3.16,17.343,17.343,0,0,1,.557-3.185c.253-.055.508-.107.761-.16.366-1.25.394-4.055-.489-5.072-.676-.778-.926-.673-.838-1.843a5.32,5.32,0,0,1,.475-1.888c.229-.491.6-.756.511-1.375-.106-.77-.586-.539-.9-1.036-.446-.709.08-1.6-.42-2.354a3.883,3.883,0,0,0-1.627-1.158c-1.217-.543-1.309-.554-1.294-1.98.014-1.2.361-2.122.467-3.264.12-1.29,1.195-1.61,1.429-2.8.3-1.494.383-4.771-.851-5.6-.678-.457-.619-.337-1.523-.446-.678-.081-.622.147-.955-.42-.258-.44.187-1.386-.045-1.945a15.076,15.076,0,0,0-.853-1.386c-.232-.392-.432-.968-.921-1.2-.806-.38-.642-.052-1.406.177-1.663.5-1.365-.455-1.387-1.767-.024-1.291-.538-1.53-.864-2.688-.14-.5.1-1.069-.043-1.513-.231-.741-.949-1.2-1.536-1.73a4.1,4.1,0,0,1-1.32-1.956c-.222-.928.454-2.353-.057-3.193-1.08-1.773-4.956-2.917-2.247-5.258.617-.533,1.548-.764,2-1.342.4-.506.106-.982.305-1.456.246-.588.43-.441.968-.793,2.154-1.413.543-3.7,1.923-5.244,1-1.126,2.5-1.2,3.674-1.959.955-.623,1-1.7,1.273-2.705.323-1.194-.931-2.271.075-3.17.806-.72,2.662-.436,2.4-1.983-.071-.429-.459-.455-.544-.883a2.236,2.236,0,0,1,.364-1.432c.439-.833,1.158-1.044,1.975-1.392,1.9-.807,4.254-2.5,2.95-4.789-.579-1.017-.787-.951-.128-2.1.352-.61.355-.19.475-1.025.125-.878-.17-1.473.3-2.275A5.746,5.746,0,0,1,1895.865,4373.447Z" transform="translate(-1427.021 -4373.345)" fill="#3d3d3d"></path></g></g></g><path id="Path_240" data-name="Path 240" d="M1737.381,4399.26c-.563.335-1.755-.035-2.355-.1l-3-.306-5.991-.614-50.88-5.209q-11.424-1.171-22.846-2.339-9.335-.959-18.674-1.913c-2.592-.266-5.185-.542-7.777-.794a18.817,18.817,0,0,1,.671-3.186c.193-.7.134-1.444.321-2.148.05-.186,1-1.772,1.054-1.618a3.642,3.642,0,0,1-.208-1.766c.048-.693.064-1.175-.624-1.576.286-.9,1.628-1.019,1.5-2.107-.071-.626-.734-.833-.857-1.449-.153-.769.463-1.334-.1-2.046-.621-.793-.9-.186-.948-1.354-.016-.446.075-.863.043-1.307a.713.713,0,0,1-.35-.609c.106-.637,1.068-.936,1.555-1.133a16.339,16.339,0,0,0,2.485-1.279,17.983,17.983,0,0,0,1.722-.819,30.456,30.456,0,0,0-2.741-3.045c-.659-.58-1.685-.92-1.134-1.982.506-.975,1.261-.55,1.529-1.692a3.8,3.8,0,0,1,.768-1.785,4.562,4.562,0,0,0,.574-2.306c.1-.9-.2-1.126-.3-1.883-.137-1.046.106-1.729-.479-2.647-.427-.668-.581-.269-.5-1.308,0-.04.087-.849.087-.849l7.826.8c5.419.555,10.7,1.449,16.109,2.011q8.664.9,17.332,1.8c5.79.6,42.17,4.338,47.959,4.941l8.684.9c2.384.248,4.638.022,7.012.23,2.105.186,4.212.384,6.3.7,2.632.4-1.172,2.585-1.687,3.577a5.436,5.436,0,0,0-.265,2.693c.98.083.975.888.522,1.565-.65.975-1.623.656-1.472,2.19.115,1.159.76.551,1.216,1.483.323.658-.16,2.11-.234,2.834-.062.616-.113,1.232-.187,1.846a1.933,1.933,0,0,0,.621,2.065c.708.863.534,2.554.224,3.645a14.2,14.2,0,0,1-.655,1.834.5.5,0,0,1-.541.467,3.91,3.91,0,0,0-.657,1.754,17.963,17.963,0,0,0-.3,4.057,5.017,5.017,0,0,1,.2,1.532,26.039,26.039,0,0,0-.392,5.1C1737.632,4396.96,1738.289,4398.638,1737.381,4399.26Z" fill="#f8f8fa" style="mix-blend-mode: soft-light;isolation: isolate"></path></g></svg>