<svg xmlns="http://www.w3.org/2000/svg" width="80.764" height="80.764" viewBox="0 0 80.764 80.764"><g id="noun-planting-3349277" transform="translate(-96.05 -26.251)"><path id="Path_11530" data-name="Path 11530" d="M342.442,123.26a1.392,1.392,0,0,1-1.392-1.392v-9.7a13.192,13.192,0,0,1,3.89-9.389l10.444-10.444a1.392,1.392,0,0,1,1.969,1.969L346.908,104.75a10.429,10.429,0,0,0-3.073,7.419v9.7a1.392,1.392,0,0,1-1.392,1.392Z" transform="translate(-206.01 -55.234)" fill="#a6ce41"></path><path id="Path_11531" data-name="Path 11531" d="M232.141,100.689a18.171,18.171,0,0,1-11.72-3.949c-4.142-3.51-6.242-9.092-6.242-16.594a1.392,1.392,0,0,1,1.392-1.392c7.5,0,13.084,2.1,16.594,6.242a19.163,19.163,0,0,1,3.77,14.369,1.392,1.392,0,0,1-1.145,1.145,17.479,17.479,0,0,1-2.649.18ZM216.993,81.567A17.22,17.22,0,0,0,222.2,94.6a16.107,16.107,0,0,0,11.087,3.265,16.049,16.049,0,0,0-3.265-11.087,17.22,17.22,0,0,0-13.032-5.209Z" transform="translate(-99.33 -44.147)" fill="#00a0e3"></path><path id="Path_11532" data-name="Path 11532" d="M284.788,150.753a1.385,1.385,0,0,1-.985-.408l-9.494-9.494a1.392,1.392,0,0,1,1.969-1.969l9.494,9.494a1.392,1.392,0,0,1-.985,2.377Z" transform="translate(-149.556 -94.372)" fill="#00a0e3"></path><path id="Path_11533" data-name="Path 11533" d="M365.98,50.1a18.76,18.76,0,0,1-2.893-.2,1.392,1.392,0,0,1-1.145-1.145,20.928,20.928,0,0,1,4.116-15.692c3.831-4.523,9.937-6.816,18.145-6.816a1.391,1.391,0,0,1,1.392,1.392c0,8.208-2.293,14.314-6.816,18.145h0a19.836,19.836,0,0,1-12.8,4.312Zm-1.4-2.839A17.88,17.88,0,0,0,377,43.648c3.6-3.065,5.547-7.968,5.786-14.586-6.629.239-11.538,2.189-14.6,5.8a17.772,17.772,0,0,0-3.6,12.394Z" transform="translate(-223.402)" fill="#a6ce41"></path><path id="Path_11534" data-name="Path 11534" d="M290.24,287.958a1.392,1.392,0,0,1-1.392-1.392,12.5,12.5,0,0,0-23.791-5.4,1.393,1.393,0,0,1-2.511-1.208,15.287,15.287,0,0,1,29.087,6.606,1.391,1.391,0,0,1-1.392,1.392Z" transform="translate(-139.883 -206.007)" fill="#00a0e3"></path><path id="Union_7" data-name="Union 7" d="M-1765.522-3490.523a13.835,13.835,0,0,1-4.372-.709l-21.964-7.322v.953a1.392,1.392,0,0,1-.408.985,1.393,1.393,0,0,1-.984.408h-13.925a1.393,1.393,0,0,1-1.393-1.392,1.393,1.393,0,0,1,1.393-1.393h12.532v-25.064h-12.532a1.393,1.393,0,0,1-1.393-1.392,1.393,1.393,0,0,1,1.393-1.393h13.925a1.393,1.393,0,0,1,.984.408,1.4,1.4,0,0,1,.408.986v3.756l3.286-1.411h0a16.721,16.721,0,0,1,8.839-1.208,16.717,16.717,0,0,1,8.2,3.514l3.582,2.866h13.69a6.457,6.457,0,0,1,5.592,3.228,6.459,6.459,0,0,1,.476,1.022l10.612-6.366a6.454,6.454,0,0,1,6.455-.11,6.455,6.455,0,0,1,3.322,5.536,6.454,6.454,0,0,1-3.132,5.644l-27.477,16.487a13.84,13.84,0,0,1-7.107,1.971Zm-3.492-3.351a11.16,11.16,0,0,0,9.168-1.008l27.475-16.487a3.672,3.672,0,0,0,1.782-3.209,3.67,3.67,0,0,0-1.89-3.147,3.67,3.67,0,0,0-3.67.062l-11.614,6.968c-.032.019-.064.037-.1.053a6.448,6.448,0,0,1-.81,2.391,6.457,6.457,0,0,1-5.592,3.228h-19.748a1.392,1.392,0,0,1-1.392-1.392,1.393,1.393,0,0,1,1.392-1.392h19.748a3.671,3.671,0,0,0,3.18-1.835,3.674,3.674,0,0,0,0-3.671,3.671,3.671,0,0,0-3.18-1.835h-14.179a1.4,1.4,0,0,1-.87-.305l-3.964-3.171h0a13.905,13.905,0,0,0-6.834-2.931,13.9,13.9,0,0,0-7.366,1.01l-4.385,1.883v17.174Zm-38.161-26.008a2.785,2.785,0,0,1,2.785-2.785,2.785,2.785,0,0,1,2.785,2.785,2.784,2.784,0,0,1-2.785,2.785A2.784,2.784,0,0,1-1807.175-3519.882Z" transform="translate(1904.618 3597.539)" fill="#bababa"></path></g></svg>