<svg xmlns="http://www.w3.org/2000/svg" width="41.295" height="54.074" viewBox="0 0 41.295 54.074"><g id="Group_1465" data-name="Group 1465" transform="translate(-216 -3521)"><g id="noun-rupee-60212" transform="translate(216 3521)"><path id="Path_11520" data-name="Path 11520" d="M183.122,52.4l-3.682,5.084h10.329c1.07.046,8.523.532,11.185,5.587h-17.9l-3.693,5.084h22.5c0,.1-.013.182-.021.278,0,0-.105,11.135-20.39,9.205v2.408l.021,2.612,21.878,23.815h8.327v-1.06L190.69,81.79v-.332s16.52.24,19.255-13.219a.431.431,0,0,1,.011-.085h6.936l3.682-5.084H209.656a11.315,11.315,0,0,0-2.9-5.587h10.222L220.66,52.4H183.122Z" transform="translate(-179.365 -52.398)" fill="#00a0e3" fill-rule="evenodd"></path></g><path id="Path_11521" data-name="Path 11521" d="M-.318-.356,37.156-.391,33.548,4.7-3.878,4.637Z" transform="translate(219.99 3532.084)" fill="#a6ce41"></path><path id="Path_11522" data-name="Path 11522" d="M-.318-.356,37.156-.391,33.548,4.7-3.878,4.637Z" transform="translate(219.99 3521.391)" fill="#a6ce41"></path></g></svg>